<svg
  id="logo"
  width="338px"
  height="338px"
  viewBox="0 0 338 338"
  xmlns="http://www.w3.org/2000/svg"
>
  <g
    transform="translate(91.051415, 93.264224)"
    fill="currentColor"
    fill-rule="nonzero"
    stroke="currentColor"
  >
    <path
      d="M84.2785849,72.7457765 C90.0985849,66.4557765 95.9285849,60.0957765 101.748585,53.8357765 C110.228585,44.7057765 118.548585,35.4257765 127.018585,26.2957765 C134.458585,18.2757765 141.898585,10.2657765 149.338585,2.24577647 C149.588585,1.97577647 149.838585,1.69577647 150.068585,1.40577647 C150.228585,1.19577647 150.308585,1.14577647 150.458585,0.815776472 C150.588585,0.565776472 150.498585,0.225776472 150.308585,0.0957764715 C150.048585,-0.0742235285 149.838585,0.0257764715 149.668585,0.0657764715 C149.408585,0.155776472 149.328585,0.205776472 149.108585,0.355776472 C148.598585,0.725776472 148.598585,0.725776472 148.128585,1.15577647 C142.458585,6.45577647 136.178585,12.0257765 130.508585,17.3357765 C120.888585,26.3757765 111.128585,35.4157765 101.508585,44.4457765 C93.5885849,51.8857765 85.6485849,59.2457765 77.7385849,66.6757765 C69.8185849,59.2457765 61.8785849,51.8857765 53.9685849,44.4457765 C44.3485849,35.4057765 34.5885849,26.3657765 24.9685849,17.3357765 C19.3085849,12.0257765 13.0185849,6.45577647 7.34858489,1.15577647 C6.87858489,0.715776472 6.87858489,0.715776472 6.36858489,0.355776472 C6.14858489,0.205776472 6.06858489,0.145776472 5.80858489,0.0657764715 C5.63858489,0.0257764715 5.42858489,-0.0642235285 5.16858489,0.0957764715 C4.97858489,0.225776472 4.88858489,0.565776472 5.01858489,0.815776472 C5.16858489,1.14577647 5.24858489,1.20577647 5.40858489,1.40577647 C5.63858489,1.69577647 5.88858489,1.97577647 6.13858489,2.24577647 C13.5785849,10.2657765 21.0185849,18.2857765 28.4585849,26.2957765 C36.9385849,35.4257765 45.2585849,44.7057765 53.7285849,53.8357765 C59.5485849,60.1057765 65.3785849,66.4657765 71.1985849,72.7457765 C61.1485849,82.1157765 46.1885849,96.2657765 38.3885849,103.465776 C30.1485849,111.065776 22.0685849,118.775776 13.8585849,126.415776 C9.34858489,130.615776 5.61858489,135.425776 2.80858489,140.925776 C1.85858489,142.785776 1.04858489,144.715776 0.318584893,146.685776 C0,147.565776 -0.071415107,148.465776 0.068584893,149.375776 C0.198584893,150.225776 0.638584893,150.765776 1.51858489,150.975776 C2.44858489,151.185776 3.31858489,151.095776 4.19858489,150.795776 C5.85858489,150.215776 7.46858489,149.535776 9.04858489,148.775776 C15.2085849,145.805776 20.5385849,141.715776 25.1785849,136.725776 C28.6685849,132.965776 32.1085849,129.155776 35.5485849,125.345776 C40.6185849,119.735776 45.8685849,114.325776 50.9985849,108.765776 C59.9285849,99.0857765 75.3485849,82.3857765 84.2785849,72.7457765"
    />
    <path
      d="M155.158585,146.675776 C154.438585,144.715776 153.628585,142.785776 152.668585,140.925776 C149.848585,135.425776 146.118585,130.615776 141.618585,126.415776 C133.418585,118.775776 125.328585,111.065776 117.088585,103.465776 C110.778585,97.6457765 99.7785849,87.2657765 90.4885849,78.5557765 C83.5485849,86.0757765 90.4885849,78.5557765 83.5485849,86.0757765 C90.5285849,93.6257765 97.4985849,101.185776 104.478585,108.765776 C109.598585,114.325776 114.858585,119.735776 119.928585,125.345776 C123.368585,129.155776 126.808585,132.965776 130.298585,136.725776 C134.938585,141.715776 140.268585,145.805776 146.428585,148.775776 C148.008585,149.535776 149.618585,150.215776 151.278585,150.795776 C152.158585,151.095776 153.038585,151.185776 153.958585,150.975776 C154.848585,150.775776 155.288585,150.225776 155.408585,149.375776 C155.548585,148.455776 155.478585,147.555776 155.158585,146.675776 Z"
    />
  </g>
  <g
    transform="translate(26.450000, 26.440000)"
    strokeWidth="7"
    stroke="currentColor"
    strokeMiterLimit="10"
    fill="none"
  >
    <path
      d="M33.82,234.48 C12.73,209.65 0,177.49 0,142.36 C0,107.3 12.67,75.2 33.69,50.4"
    />
    <path
      d="M235.04,250.41 C210.14,271.79 177.75,284.72 142.35,284.72 C107.45,284.72 75.47,272.16 50.71,251.31"
    />
    <path
      d="M250.67,49.99 C271.89,74.85 284.71,107.11 284.71,142.36 C284.71,177.18 272.21,209.07 251.46,233.81"
    />
    <path
      d="M50.89,33.27 C75.63,12.51 107.53,0 142.35,0 C177.26,0 209.23,12.56 233.99,33.41"
    />
  </g>
</svg>